#!OML:ASF E:/inclinewalkrobotboard/Project1/Captureday1/Session1/subject1.ASF
:FULLY-SPECIFIED
:DEGREES
63
root 0 0 0 -1.9187637679409062 -4.836822804212305 -7.017788253971942
lowerback 11.658121541326185 1.676098562465981 6.282053397668561
upperback 0.4715321974074993 3.141700497469798 2.2773540864312407
thorax -5.844526955141201 1.4203520678932797 -1.6227095343333935
lowerneck -17.328868536312033 -3.578439678542136 -1.454746691111179
upperneck 21.378653667965235 -4.595313783670386 0.1047442782246022
head 9.764144669797375 -2.2304802325549398 -0.3208444640233508
rclavicle 1.0237092521513357E-15 1.382189653913498E-15
rhumerus -29.481573522239465 -19.14621477190144 -77.85504958774169
rradius 28.162134912281864
rwrist 1.2538045801164293
rhand -19.0220089214507 23.878690935949713
rfingers 7.125020000000019
rthumb 7.284345154354003 -6.00725908473968
lclavicle -2.155520121505083E-15 1.8194051421968934E-15
lhumerus -34.891132119321284 -1.070375124161079 84.92598589711584
lradius 28.3378826828146
lwrist 6.7494969288828575
lhand -27.26868577897817 23.791525538043444
lfingers 7.125020000000016
lthumb -0.6720792697750202 53.77706852081034
rfemur -0.47467903531072775 8.431543702164188 36.70914342744074
rtibia 32.20246484599704
rfoot -21.96738104186733 -7.551494845012455
rtoes 8.542025413406556
lfemur -29.797126018495156 3.009872019034588 -11.834432654560628
ltibia 47.51122045370346
lfoot -5.920976298429245 -0.5019188568164217
ltoes -4.0728399389383725
64
root 0 0 0 -1.7153553056002198 -5.0955317261897335 -7.133430849477005
lowerback 11.619722791953748 1.79785227108954 6.5372125980296305
upperback 0.6992147149143355 3.312634797155737 2.2505749733431255
thorax -5.553254051122942 1.5006186796737206 -1.8129579171165253
lowerneck -17.458851063739328 -3.556158870822486 -1.537388134565978
upperneck 20.1922757425194 -4.5186502550066105 0.1999758973072241
head 9.334989557853405 -2.210373203945809 -0.2621368104143072
rclavicle 1.7490215079407077E-15 7.850288403734628E-16
rhumerus -28.338552427194934 -17.785769991196652 -78.01451848196565
rradius 29.277396414682038
rwrist 0.43378655519053133
rhand -19.211677301355405 24.40756667153527
rfingers 7.125020000000017
rthumb 7.102488847780756 -5.492803382213605
lclavicle -1.7451976008752819E-15 1.4017082207754644E-15
lhumerus -35.116225424682774 -0.9019473836178385 84.9614572988972
lradius 28.17915296783359
lwrist 6.678411529065473
lhand -27.2987455904015 23.706829278752757
lfingers 7.125020000000015
lthumb -0.7006418484310224 53.696831554010416
rfemur 0.6613712420434892 8.417479377461175 36.55636756822519
rtibia 31.47278924507053
rfoot -22.170902810934567 -7.66427033023845
rtoes 7.405908381921542
lfemur -29.575454515347694 -0.6453672999648656 -10.517340986196963
ltibia 29.01858838260702
lfoot -6.171610414398607 3.679471034582149
ltoes -6.256198264829504
65
root 0 0 0 -1.6076744219699048 -5.252774778259965 -7.172842511473903
lowerback 11.479132294891835 1.8522970205006088 6.647563932711814
upperback 0.8192820839201264 3.383192955806104 2.232375564610181
thorax -5.33404803498555 1.5345313762483417 -1.8985394220559768
lowerneck -17.55498771612252 -3.51811807303459 -1.6000355898401337
upperneck 19.655819464652797 -4.443997472999334 0.2678095678250547
head 9.135419194587081 -2.1823714450050407 -0.21986907003806133
rclavicle 2.094115204247974E-15 2.3600396194567155E-16
rhumerus -27.87774016069034 -17.35812547953862 -77.93666800415022
rradius 29.78867058436699
rwrist 0.06609479830148768
rhand -19.306025498242107 24.629324301565475
rfingers 7.125020000000017
rthumb 7.011759653910124 -5.281876442647462
lclavicle -1.6438150591516377E-15 8.402348600534092E-16
lhumerus -35.24212436859334 -0.6799094908541619 84.86972331918848
lradius 27.937946214585324
lwrist 6.526412294185017
lhand -27.28537368068187 23.743237463180474
lfingers 7.125020000000016
lthumb -0.6880700265546604 53.7339410898371
rfemur 5.685983307516994 8.303422739710935 35.564254515272495
rtibia 28.176857952864523
rfoot -21.785666453312178 -6.820626461431836
rtoes 3.242719031163112
lfemur -26.94077411593433 -3.668262410218263 -11.134831859070808
ltibia 20.753424566959794
lfoot -5.145189004010586 4.437490808921257
ltoes -3.09511010666586
66
root 0 0 0 -1.7471377747086148 -5.2874930305471235 -7.025632789404209
lowerback 11.517890795262375 1.879466112009978 6.480517022263004
upperback 0.7991047225203778 3.3984569593824734 2.1826241424322257
thorax -5.380973573828965 1.544967496351108 -1.8601430783906099
lowerneck -17.469614567204342 -3.5488835081815715 -1.6010699044329262
upperneck 19.446713399312003 -4.504825932550853 0.3605966362018844
head 9.05938326909881 -2.201863707501226 -0.1935680971870289
rclavicle 2.2004066382771294E-15 -1.4273129302759913E-15
rhumerus -27.912701470522993 -17.715268446226005 -77.7529179075047
rradius 29.705248200421998
rwrist 0.166709898962349
rhand -19.317743961213292 24.579661511244694
rfingers 7.125020000000017
rthumb 7.001453890814129 -5.335620829574594
lclavicle -1.5953520554740019E-15 -9.809564138144414E-16
lhumerus -35.47768739449367 -0.291470045371816 84.69456505837866
lradius 27.46193496376984
lwrist 6.201558555492483
lhand -27.263014766472242 23.87172177456174
lfingers 7.125020000000017
lthumb -0.6661178240879595 53.866183221979696
rfemur 11.706860528797272 8.361080376902622 35.48116905834235
rtibia 26.347479408761608
rfoot -20.82258998668982 -5.253965113500163
rtoes -2.922299011622079
lfemur -26.273765828092923 -4.532266749571679 -11.369287296814566
ltibia 20.17906769997253
lfoot -5.540839817296648 4.585657338850414
ltoes -1.5255563728163573
